<svg id="Layer_1" data-name="Layer 1" xmlns="http://www.w3.org/2000/svg" viewBox="0 0 1080 1080"><defs><style>.cls-1{fill:#eacc1e;}.cls-2{fill:#2b2d6c;}</style></defs><title>Artboard 4</title><path class="cls-1" d="M417.35,741.1H399.9l-28.47-21.58V741.1H359.9V691.93h11.53v20.49l26.31-20.49h15.57l-30.65,23.15Z"/><path class="cls-1" d="M492.44,729.47c0,4.6-.88,7.69-2.62,9.26s-4.94,2.37-9.6,2.37H444.15q-7,0-9.61-2.37t-2.61-9.26V703.65c0-4.6.87-7.68,2.61-9.26s4.94-2.37,9.61-2.37h36.07q7,0,9.6,2.37c1.74,1.58,2.62,4.66,2.62,9.26ZM481,731.74V700.89H443.36v30.85Z"/><path class="cls-1" d="M573.93,741.1H559.54l-18.23-18.53H530.77V741.1H519.53V692h42.08q11,0,11,8.58V714a8.57,8.57,0,0,1-5.72,8.57H555.11Zm-12.32-30.85v-5.91q0-3.84-3.25-3.84H530.77v13.7h27.59Q561.62,714.2,561.61,710.25Z"/><path class="cls-1" d="M651.87,741.1H640.94l-6.41-10.74H602.6l-6.11,10.74H585.16l27.69-49.27h10.94Zm-22.46-19.71-11-20-10.94,20Z"/><path class="cls-1" d="M735.14,741.1H724.89V705.43l-22,17.54-22.17-17.54V741.1h-10V691.83H681l21.88,18.23,22.17-18.23h10Z"/><path class="cls-1" d="M711.73,252.88H377.22a30.33,30.33,0,0,0-30.33,30.33V617.72a30.33,30.33,0,0,0,30.33,30.33H711.73a30.33,30.33,0,0,0,30.33-30.33V283.21A30.33,30.33,0,0,0,711.73,252.88ZM488.41,306.45l95.74,124.23-.33.26-72.45,57.6-.1-.75-23.83-182.6Zm-8.79,35.32,0,.2,21.95,154.1-7.38,1.15-.11-.35L436.94,314.05ZM613.53,478.63l-.15.08L411.45,585.91,613.53,418.75Zm8.75-28.33L621,416.74,677.5,450.3Z"/><polygon class="cls-2" points="613.38 478.71 613.53 478.63 613.53 418.75 411.45 585.91 613.38 478.71"/><polygon class="cls-2" points="511.37 488.54 583.82 430.94 584.15 430.68 488.41 306.45 487.44 305.19 511.27 487.79 511.37 488.54"/><polygon class="cls-2" points="494.21 497.22 501.59 496.07 479.64 341.97 479.62 341.77 436.94 314.05 494.1 496.87 494.21 497.22"/><polygon class="cls-2" points="622.27 450.3 677.5 450.3 621.02 416.75 622.27 450.3"/></svg>